<svg width="1000" height="1000" viewBox="0 0 1000 1000" fill="none" xmlns="http://www.w3.org/2000/svg">
<g id="chart 1">
<g id="background">
<path id="Vector" d="M0 0V1000H1000V0H0Z" fill="white"/>
</g>
<g id="lightbulb">
<path id="Vector_2" d="M297 16.1887C277.6 18.8296 258.495 23.7146 241 32.7442C192.633 57.7081 158.021 110.815 158 165.763C157.988 197.829 165.704 225.983 181.742 253.762C186.885 262.672 196.539 278.582 208 278.582C217.189 278.582 223.555 269.48 220.561 260.763C217.588 252.105 208.58 244.712 203.884 236.763C193.375 218.975 187.12 200.251 185.17 179.763C178.413 108.767 240.476 42.7635 311 42.7635C320.048 42.7635 330.239 42.3102 339 44.8037C358.119 50.245 376.201 57.8574 392 70.2815C424.373 95.7385 444.766 138.409 440.83 179.763C438.919 199.848 432.903 218.243 422.706 235.748C417.864 244.06 408.525 251.779 405.439 260.763C402.445 269.48 408.811 278.582 418 278.582C429.742 278.582 439.662 261.908 444.823 252.763C460.956 224.173 471.009 192.027 467.83 158.763C465.29 132.182 457.034 106.077 442.11 83.7635C411.391 37.8305 352.534 8.629 297 16.1887Z" fill="#F6F688"/>
</g>
<g id="basegraph">
<path id="Vector_3" d="M184 583V950H167V970H184V990H205V970H596V950H205V583H184Z" fill="black"/>
</g>
<g id="basebars">
<path id="Vector_4" d="M661 577V598H970V577H661Z" fill="black"/>
</g>
<g id="graph">
<path id="Vector_5" d="M561 675C541.061 702.757 519.879 729.659 499.373 757L482.873 779C480.716 781.877 478.295 786.551 474.91 788.119C470.529 790.148 464.267 783.619 461 781.291C453.992 776.297 446.945 771.347 440 766.266C435.222 762.771 430.326 758.605 424 759.124C413.857 759.957 408.019 776.344 403.576 784C393.483 801.391 383.173 818.662 372.989 836C367.603 845.17 361.211 854.227 357 864C343.094 840.175 331.584 814.675 319.247 790C315.914 783.333 312.624 776.643 309.244 770C307.406 766.388 305.533 762.288 301.907 760.14C296.76 757.091 289.715 758 284 758H248V782H276C279.562 782 284.587 781.14 287.787 783.028C293.111 786.169 296.083 796.66 298.753 802L323.247 851C329.614 863.727 336.365 876.272 342.753 889C345.8 895.071 349.33 900.505 357 899.876C365.346 899.191 369.227 889.312 372.85 883C382.669 865.896 393.031 849.104 402.85 832C411.018 817.772 422.357 803.412 428 788C439.786 792.958 450.606 803.148 461 810.579C465.627 813.887 470.913 818.97 477 818.721C483.267 818.464 486.696 813.564 490.127 809C495.665 801.632 501.343 794.374 506.873 787L554.127 724C562.637 712.653 570.718 700.726 580 690C575.111 683.994 567.56 679.085 561 675Z" fill="#1DBCA3"/>
</g>
<g id="basebulb">
<path id="Vector_6" d="M232.118 291.882C220.299 294.628 217.827 311.682 230.121 316.035C233.76 317.324 238.316 316.359 242.117 316.353H268.117H357.117C366.45 316.353 375.784 316.312 385.117 316.354C389.916 316.375 394.84 317.468 399.023 314.495C409.941 306.734 402.822 292.407 391.117 291.446C379.6 290.501 367.674 291.353 356.117 291.353H289.117H252.117C245.689 291.353 238.41 290.421 232.118 291.882Z" fill="black"/>
<path id="Vector_7" d="M231.966 329.887C219.985 332.8 218.188 349.57 229.967 354.206C234.314 355.917 239.392 355.354 243.966 355.354H268.966H356.966H383.966C389.064 355.354 394.532 355.75 398.922 352.651C409.652 345.076 402.478 330.396 390.966 329.447C379.45 328.498 367.522 329.354 355.966 329.354H287.966H250.966C244.877 329.354 237.917 328.44 231.966 329.887Z" fill="black"/>
<path id="Vector_8" d="M257.641 369.458C246.163 371.965 244.242 388.711 255.642 392.943C263.712 395.939 275.133 393.975 283.641 393.975H341.641C350.207 393.975 364.001 396.557 371.622 392.037C382.424 385.629 376.894 370.432 365.641 369.149C343.881 366.67 320.55 368.975 298.641 368.975C285.696 368.975 270.3 366.693 257.641 369.458Z" fill="black"/>
<path id="Vector_9" d="M283.563 407.865C271.919 410.925 270.498 427.079 281.568 431.94C286.711 434.198 293.079 433.307 298.563 433.307H327.563C332.41 433.307 337.93 434.021 342.562 432.337C353.781 428.26 354.141 412.098 342.562 408.161C336.827 406.211 329.545 407.307 323.563 407.307H297.563C293.038 407.307 287.977 406.705 283.563 407.865Z" fill="black"/>
</g>
<g id="bars">
<path id="Vector_10" d="M872 388V566H933V388H872Z" fill="#779BC5"/>
<path id="Vector_11" d="M785 412V566H846V412H785Z" fill="#779BC5"/>
<path id="Vector_12" d="M698 430V566H759V430H698Z" fill="#779BC5"/>
</g>
</g>
</svg>
